# xmcd
#
# Track frame offsets:
#	150
#	9830
#	22310
#	34275
#	45370
#	59592
#	70457
#	83015
#	91320
#	104012
#	113627
#	126202
#	138080
#	150025
#	159517
#	169720
#	178620
#
# Disc length: 2531 seconds
#
# Revision: 1
# Processed by: cddbd v1.5.2PL0 Copyright (c) Steve Scherf et al.
# Submitted via: audiograbber 1.83.01
#
DISCID=d309e111
DTITLE=Various Artist - Country and Western Music Festival
DYEAR=1986
DGENRE=Country
TTITLE0=Dave Dudley - Cowboy Boots 
TTITLE1=Hank Thompson - Oklahoma Hills
TTITLE2=Jeannie C. Riley  - Country Girl
TTITLE3=Kenny Price - Happy Tracks
TTITLE4=Robert Dean Taylor - Indiana Wants Me
TTITLE5=Faron Young - Wine Me Up
TTITLE6=David Houston - My Exclusive Dreams
TTITLE7=Frankie Miller - Family Man
TTITLE8=Kitty Wells - Making Believe
TTITLE9=Dennis Olson - Truck Drivin Outlaw
TTITLE10=Red Simpson - Roll Truck Roll
TTITLE11=Nat Stuckey - Sweet Thang
TTITLE12=Jody Miller - Queen Of The House
TTITLE13=Skeeter Davis - Turn Your Radio On
TTITLE14=Ferlin Husky - Gone
TTITLE15=Bob Luman - Let's Think About Living
TTITLE16=Charlie Louvin - I Don't Like You Anymore
EXTD=
EXTT0=
EXTT1=
EXTT2=
EXTT3=
EXTT4=
EXTT5=
EXTT6=
EXTT7=
EXTT8=
EXTT9=
EXTT10=
EXTT11=
EXTT12=
EXTT13=
EXTT14=
EXTT15=
EXTT16=
PLAYORDER=
